<svg width="95" height="28" viewBox="0 0 95 28" fill="none" xmlns="http://www.w3.org/2000/svg">
<path d="M88.8384 8.02963L94.2752 0.75293H44.9568C43.1457 0.75293 41.6725 2.29138 41.6725 4.18271V12.8168H0L5.43681 20.0931L0 27.3698H50.4974C52.3081 27.3698 53.7813 25.8313 53.7813 23.94V15.3063H94.2752L88.8384 8.02963ZM44.9568 1.58077H92.651L87.8335 8.02963L92.651 14.4785H44.9568C43.9552 14.4785 43.0681 14.9591 42.4652 15.6996V4.18271C42.4652 2.74814 43.5831 1.58077 44.9568 1.58077ZM50.4974 26.5419H1.62415L6.44242 20.0931L1.62415 13.6446H41.6725V17.9083C41.6725 19.7996 43.1457 21.338 44.9568 21.338H50.4974C51.8707 21.338 52.9886 22.5054 52.9886 23.94C52.9886 25.3746 51.8707 26.5419 50.4974 26.5419Z" fill="#426041"/>
</svg>
