<svg width="90" height="36" viewBox="0 0 90 36" fill="none" xmlns="http://www.w3.org/2000/svg">
<path d="M52 13.7354C47.09 16.2521 48.68 21.8077 48.68 21.8077C53.69 20.0116 52 13.7354 52 13.7354Z" fill="#426041"/>
<path d="M58.2499 10.498C53.3499 13.0252 54.9399 18.5809 54.9399 18.5809C59.9099 16.7638 58.2499 10.498 58.2499 10.498Z" fill="#426041"/>
<path d="M64.5199 8.60742C59.6199 11.1346 61.2099 16.6903 61.2099 16.6903C66.1799 14.8836 64.5199 8.60742 64.5199 8.60742Z" fill="#426041"/>
<path d="M70.8201 7.36523C65.9101 9.89242 67.5001 15.4481 67.5001 15.4481C72.4801 13.631 70.8201 7.36523 70.8201 7.36523Z" fill="#426041"/>
<path d="M77.11 5.07812C72.21 7.59487 73.8 13.1505 73.8 13.1505C78.77 11.3543 77.11 5.07812 77.11 5.07812Z" fill="#426041"/>
<path d="M83.3101 2.3623C78.8101 4.67019 80.3101 9.76634 80.3101 9.76634C84.8301 8.10592 83.3101 2.3623 83.3101 2.3623Z" fill="#426041"/>
<path d="M88.49 0.169922C87.234 0.804531 86.2122 1.85227 85.5817 3.15215C84.9512 4.45204 84.7469 5.93216 85 7.3651C89.43 6.43568 88.49 0.169922 88.49 0.169922Z" fill="#426041"/>
<path d="M53 24.6688C53 24.6688 54.89 30.12 60.27 29.0966C60.24 29.0966 58 23.0293 53 24.6688Z" fill="#426041"/>
<path d="M60 22.2567C60 22.2567 61.9 27.7079 67.28 26.6845C67.26 26.6845 65 20.6067 60 22.2567Z" fill="#426041"/>
<path d="M67.45 20.3348C67.45 20.3348 69.34 25.786 74.72 24.7626C74.72 24.7626 72.47 18.6953 67.45 20.3348Z" fill="#426041"/>
<path d="M73.74 18.8524C73.74 18.8524 75.63 24.3036 81.01 23.2802C81 23.2802 78.77 17.2024 73.74 18.8524Z" fill="#426041"/>
<path d="M79.79 16.5761C79.79 16.5761 82.47 21.0874 87.11 19.1137C87.11 19.1137 84 14.1116 79.79 16.5761Z" fill="#426041"/>
<path d="M83.45 13.0145C84.8281 13.1564 86.2131 12.8254 87.395 12.0716C88.5769 11.3179 89.4914 10.1824 90 8.83728C90 8.83728 84 8.28381 83.45 13.0145Z" fill="#426041"/>
<path d="M46.41 28.439C52.5099 20.6172 64.33 18.8524 64.33 18.8524C83.19 15.4584 84.33 8.17969 84.33 8.17969C81.22 13.1505 72.9399 15.9701 65.9 17.1606C54.26 19.1239 48.15 23.3219 45 26.7263C41.8499 23.3219 35.74 19.1239 24.13 17.1606C17.13 15.9701 8.80995 13.1505 5.69995 8.17969C5.69995 8.17969 6.80995 15.4897 25.7 18.8524C25.7 18.8524 37.5199 20.6172 43.6199 28.439C42.8481 29.4346 42.246 30.5615 41.84 31.7703C40.5299 35.4462 43.22 35.4462 43.22 35.4462C43.5507 33.7223 44.1521 32.0674 45 30.5484C45.8582 32.0654 46.4699 33.7204 46.81 35.4462C46.81 35.4462 49.5 35.4462 48.1899 31.7703C47.7839 30.5615 47.1818 29.4346 46.41 28.439Z" fill="#426041"/>
<path d="M41.2801 21.8077C41.2801 21.8077 42.8701 16.2521 38.0001 13.7354C38.0001 13.7354 36.3101 20.0116 41.2801 21.8077Z" fill="#426041"/>
<path d="M35.0599 18.5701C35.0599 18.5701 36.6499 13.0145 31.7499 10.4873C31.7499 10.4977 30.0899 16.7635 35.0599 18.5701Z" fill="#426041"/>
<path d="M28.7901 16.6903C28.7901 16.6903 30.3801 11.1346 25.4801 8.60742C25.4801 8.60742 23.8201 14.8836 28.7901 16.6903Z" fill="#426041"/>
<path d="M22.4999 15.3953C22.4999 15.3953 24.0899 9.83969 19.1799 7.3125C19.1799 7.36471 17.5199 13.6305 22.4999 15.3953Z" fill="#426041"/>
<path d="M16.2 13.1505C16.2 13.1505 17.79 7.59487 12.89 5.07812C12.89 5.07812 11.23 11.3543 16.2 13.1505Z" fill="#426041"/>
<path d="M9.72998 9.76634C9.72998 9.76634 11.19 4.67019 6.72998 2.3623C6.68998 2.3623 5.16998 8.10592 9.72998 9.76634Z" fill="#426041"/>
<path d="M4.99991 7.36464C5.23816 5.93491 5.02216 4.46303 4.38485 3.17341C3.74753 1.8838 2.72386 0.847206 1.4699 0.22168C1.4699 0.22168 0.569905 6.43522 4.99991 7.36464Z" fill="#426041"/>
<path d="M29.76 29.0966C35.14 30.1409 37.03 24.6688 37.03 24.6688C32 23.0293 29.76 29.0966 29.76 29.0966Z" fill="#426041"/>
<path d="M22.74 26.6845C28.12 27.7288 30.02 22.2567 30.02 22.2567C25 20.6067 22.74 26.6845 22.74 26.6845Z" fill="#426041"/>
<path d="M15.28 24.7626C20.66 25.8069 22.55 20.3348 22.55 20.3348C17.53 18.6953 15.28 24.7626 15.28 24.7626Z" fill="#426041"/>
<path d="M9 23.2802C14.38 24.3245 16.27 18.8524 16.27 18.8524C11.23 17.2024 9 23.2802 9 23.2802Z" fill="#426041"/>
<path d="M10.2099 16.5761C5.99989 14.1116 2.88989 19.1137 2.88989 19.1137C7.52989 21.0874 10.2099 16.5761 10.2099 16.5761Z" fill="#426041"/>
<path d="M6.55 13.0145C6.05 8.28381 0 8.83728 0 8.83728C0.508567 10.1824 1.42306 11.3179 2.60497 12.0716C3.78688 12.8254 5.17181 13.1564 6.55 13.0145Z" fill="#426041"/>
</svg>
