<svg width="95" height="28" viewBox="0 0 95 28" fill="none" xmlns="http://www.w3.org/2000/svg">
<path d="M5.43701 8.02963L0.000198364 0.75293H49.3186C51.1297 0.75293 52.6029 2.29138 52.6029 4.18271V12.8168H94.2754L88.8386 20.0931L94.2754 27.3698H43.778C41.9673 27.3698 40.4941 25.8313 40.4941 23.94V15.3063H0.000198364L5.43701 8.02963ZM49.3186 1.58077H1.62435L6.44185 8.02963L1.62435 14.4785H49.3186C50.3202 14.4785 51.2073 14.9591 51.8101 15.6996V4.18271C51.8101 2.74814 50.6923 1.58077 49.3186 1.58077ZM43.778 26.5419H92.6512L87.833 20.0931L92.6512 13.6446H52.6029V17.9083C52.6029 19.7996 51.1297 21.338 49.3186 21.338H43.778C42.4047 21.338 41.2868 22.5054 41.2868 23.94C41.2868 25.3746 42.4047 26.5419 43.778 26.5419Z" fill="#426041"/>
</svg>
